<svg width="26" height="17" viewBox="0 0 26 17" fill="none" xmlns="http://www.w3.org/2000/svg">
<path d="M25.0703 11.9375C25.4609 11.5859 25.4609 11 25.0703 10.6094L24.6406 10.1797C24.2891 9.82812 23.6641 9.82812 23.3125 10.2188L21.75 11.8984V3.1875C21.75 2.67969 21.3203 2.25 20.8125 2.25H11.2812C10.4609 2.25 10.0312 3.26562 10.6172 3.85156L11.2422 4.47656C11.3984 4.67188 11.6328 4.75 11.9062 4.75H19.25V11.8984L17.6484 10.2188C17.2969 9.82812 16.6719 9.82812 16.3203 10.1797L15.8906 10.6094C15.5 11 15.5 11.5859 15.8906 11.9375L19.8359 15.8828C20.1875 16.2344 20.7734 16.2344 21.125 15.8828L25.0703 11.9375ZM14.7188 12.5625C14.5625 12.3672 14.3281 12.25 14.0547 12.25H6.75V5.14062L8.3125 6.82031C8.66406 7.21094 9.28906 7.21094 9.64062 6.85938L10.0703 6.42969C10.4609 6.03906 10.4609 5.45312 10.0703 5.10156L6.125 1.15625C5.77344 0.804688 5.1875 0.804688 4.83594 1.15625L0.890625 5.10156C0.5 5.45312 0.5 6.03906 0.890625 6.42969L1.32031 6.85938C1.67188 7.21094 2.29688 7.21094 2.64844 6.82031L4.25 5.14062V13.8125C4.25 14.3594 4.64062 14.75 5.1875 14.75H14.6797C15.5 14.75 15.9297 13.7734 15.3438 13.1875L14.7188 12.5625Z" fill="#808080"/>
</svg>
